<?xml version="1.0" standalone="no"?>
<!DOCTYPE svg PUBLIC "-//W3C//DTD SVG 20010904//EN"
 "http://www.w3.org/TR/2001/REC-SVG-20010904/DTD/svg10.dtd">
<svg version="1.0" xmlns="http://www.w3.org/2000/svg"
 width="1200.000000pt" height="1200.000000pt" viewBox="0 0 1200.000000 1200.000000"
 preserveAspectRatio="xMidYMid meet">
<metadata>
Created by potrace 1.11, written by Peter Selinger 2001-2013
</metadata>
<g transform="translate(0.000000,1200.000000) scale(0.100000,-0.100000)"
fill="#000000" stroke="none">
<path d="M5887 10463 c-2 -1 -34 -5 -72 -8 -70 -5 -131 -12 -176 -20 -13 -2
-51 -9 -84 -14 -65 -11 -70 -12 -165 -35 -58 -13 -203 -61 -300 -97 -80 -30
-305 -151 -398 -213 -55 -37 -143 -103 -195 -146 -63 -53 -125 -94 -183 -122
-285 -135 -514 -315 -673 -528 -100 -134 -194 -329 -228 -474 -31 -135 -36
-175 -37 -331 0 -93 2 -184 6 -201 6 -29 1 -35 -95 -125 -57 -52 -122 -116
-145 -144 l-43 -50 6 -155 c3 -85 8 -189 10 -230 7 -137 17 -285 20 -320 2
-19 6 -78 10 -130 3 -52 8 -106 10 -120 2 -14 7 -59 10 -100 4 -41 9 -83 10
-92 2 -9 7 -48 10 -85 4 -37 8 -75 10 -83 2 -8 7 -35 10 -60 12 -90 46 -242
65 -293 24 -64 33 -69 330 -225 72 -38 122 -72 159 -110 81 -82 207 -133 311
-127 30 2 32 -1 106 -153 41 -85 74 -156 72 -157 -2 -2 -45 -19 -96 -39 -222
-85 -398 -185 -642 -365 -68 -50 -212 -186 -250 -236 -77 -102 -141 -228 -172
-344 -27 -97 -30 -309 -5 -384 l15 -48 -111 -82 c-434 -318 -809 -607 -859
-659 -15 -16 -37 -55 -49 -86 -12 -31 -30 -79 -41 -107 -47 -121 -213 -631
-308 -945 -17 -58 -36 -118 -41 -135 -30 -96 -131 -467 -144 -530 -21 -100
-23 -93 67 -184 231 -234 532 -424 973 -615 66 -29 145 -62 175 -74 30 -11 86
-33 125 -47 38 -15 74 -28 80 -30 5 -1 17 -5 25 -8 98 -40 516 -164 735 -219
121 -30 324 -77 365 -84 14 -3 41 -9 60 -14 19 -5 46 -11 60 -14 14 -3 50 -10
80 -16 30 -6 66 -13 80 -15 14 -2 60 -11 102 -19 42 -9 105 -20 140 -26 35 -5
74 -12 88 -15 25 -5 229 -38 305 -49 22 -4 54 -8 70 -11 17 -3 48 -7 70 -10
22 -3 54 -7 70 -10 58 -9 133 -18 410 -50 222 -26 316 -33 420 -29 66 2 131 5
145 8 14 2 59 7 100 11 41 4 83 9 93 10 9 2 50 6 90 10 39 4 74 8 77 10 3 1
36 6 73 10 37 3 76 8 85 10 18 3 80 11 152 20 25 3 57 8 73 10 53 9 83 14 127
20 70 9 220 34 270 45 25 5 61 12 80 14 19 3 60 10 90 16 30 6 64 13 75 15 20
3 55 10 105 20 14 3 39 8 55 11 17 3 58 11 91 19 34 8 73 16 85 19 13 2 76 16
139 31 63 15 122 28 130 30 8 2 44 11 80 20 36 9 76 19 89 21 13 3 31 9 40 13
9 5 34 12 56 16 22 5 42 9 45 10 3 1 32 9 65 19 33 9 83 24 110 33 28 8 55 16
60 17 46 9 472 158 550 192 17 7 75 31 130 54 118 50 433 205 456 226 8 8 19
14 24 14 14 0 265 169 330 223 101 82 255 238 255 257 0 10 -7 49 -16 87 -9
37 -17 75 -19 84 -2 10 -18 68 -35 130 -18 63 -33 119 -34 124 -27 114 -271
893 -356 1134 -83 236 -117 313 -153 345 -95 83 -428 337 -845 644 -62 46
-110 87 -107 93 4 5 8 17 10 26 2 10 8 38 14 63 10 46 8 231 -4 285 -14 66
-58 184 -92 245 -78 144 -186 262 -355 389 l-96 72 13 42 c16 51 105 354 110
376 3 9 43 149 91 311 56 190 93 300 104 310 18 15 56 125 66 190 3 19 9 51
14 70 5 19 11 55 14 80 4 25 8 56 10 70 3 14 7 52 11 85 7 67 12 110 20 170 5
40 12 125 20 220 25 335 39 592 40 743 l0 113 -141 137 -142 137 8 50 c11 69
10 265 -2 350 -17 124 -54 258 -104 370 -10 22 -18 42 -19 45 0 3 -3 10 -7 15
-3 6 -18 33 -33 60 -82 150 -249 338 -400 452 -44 33 -132 91 -196 130 -65 38
-153 102 -198 143 -255 231 -595 414 -936 505 -16 5 -32 9 -35 10 -113 31
-388 73 -522 79 -20 1 -40 5 -44 8 -4 4 -14 3 -24 -2 -10 -5 -20 -6 -24 -3 -6
6 -184 12 -189 6z m2324 -4734 c-92 -340 -101 -370 -109 -366 -93 48 -222 104
-312 134 l-45 15 73 145 c39 80 72 151 72 157 0 7 23 12 60 12 111 2 203 40
281 118 24 23 45 42 47 41 1 -1 -29 -116 -67 -256z"/>
</g>
</svg>
